<svg xmlns="http://www.w3.org/2000/svg" viewBox="0 0 211.45 108.2"><defs><style>.cls-1{fill:#3a3a3a;}</style></defs><g id="Layer_2" data-name="Layer 2"><g id="Layer_1-2" data-name="Layer 1"><path class="cls-1" d="M0,0H23C36.17,0,43.81,7.44,43.81,19c0,8-3.66,13.72-10.28,16.56L45.88,58.19H32.3l-11-20.63h-9V58.19H0ZM20.66,27.67c7,0,10.48-2.89,10.48-8.66s-3.44-9-10.54-9H12.3V27.67Z"/><path class="cls-1" d="M50.23,46c0-9.75,7.75-12.65,16.39-13.44,7.59-.74,10.57-1.11,10.57-3.92v-.17c0-3.58-2.36-5.66-6.48-5.66-4.34,0-6.93,2.14-7.75,5l-11.2-.91C53.44,19,60.31,14,70.77,14c9.72,0,18.52,4.37,18.52,14.77V58.19H77.81v-6h-.34C75.34,56.2,71.17,59,64.72,59,56.39,59,50.23,54.64,50.23,46Zm27.05-3.41V38c-1.45,1-5.77,1.59-8.41,2-4.27.6-7.08,2.27-7.08,5.68s2.67,5.06,6.39,5.06C73.5,50.66,77.28,47.16,77.28,42.59Z"/><path class="cls-1" d="M110.8,58.19H98.69V0H110.8Z"/><path class="cls-1" d="M120.46,14.55h11.93v7.33h.54A12.85,12.85,0,0,1,145.34,14C154.92,14,163,21.42,163,36.42c0,14.61-7.76,22.48-17.7,22.48-7,0-10.72-4.06-12.39-7.7h-.37V74.55h-12.1Zm21,34.72c5.94,0,9.18-5.29,9.18-12.9s-3.19-12.76-9.18-12.76-9.18,5-9.18,12.76S135.66,49.27,141.48,49.27Z"/><path class="cls-1" d="M183.16,58.19H171.05V0h11.76V22.25h.52c2-5.15,6.42-8.27,13-8.27,9.09,0,15.11,6.19,15.08,16.42V58.19h-12.1V32.56c0-5.37-2.87-8.52-7.78-8.52s-8.39,3.29-8.41,8.92Z"/><path class="cls-1" d="M23.75,87.41a15.59,15.59,0,0,0-.93,2.08,30.26,30.26,0,0,1-5,9.59,27.36,27.36,0,0,1-11.61,8.06l-3.35-3c5.87-1.77,9.05-4.26,11.54-7.08a21,21,0,0,0,4.08-7.83H10.44a32.29,32.29,0,0,1-7.23,6.93L0,93.77a25.56,25.56,0,0,0,8.94-9.24,12.42,12.42,0,0,0,1.28-3l4.2,1.37c-.69,1-1.4,2.31-1.77,2.94l-.06.15h5.76a8.91,8.91,0,0,0,2.49-.35Z"/><path class="cls-1" d="M36.48,83.28a18.65,18.65,0,0,0-.1,2.16v9.71c0,.69,0,1.83.1,2.49H32.21c0-.54.15-1.68.15-2.52V85.44a20.56,20.56,0,0,0-.11-2.16ZM49.7,83c-.06.81-.12,1.74-.12,2.88v5.66c0,6.18-1.2,8.82-3.33,11.16a16.7,16.7,0,0,1-7,4.17l-3-3.18a13.27,13.27,0,0,0,7-3.6c1.95-2.16,2.34-4.29,2.34-8.78V85.89A19.66,19.66,0,0,0,45.44,83Z"/><path class="cls-1" d="M79.25,85.82a12.82,12.82,0,0,0-1,1.77,42.55,42.55,0,0,1-4.49,7.89,85.24,85.24,0,0,1,8,8.19l-3.27,2.85a67.74,67.74,0,0,0-7.2-8.1,38,38,0,0,1-10.79,8l-2.94-3.09a32.23,32.23,0,0,0,11.75-8.22,22.53,22.53,0,0,0,4.26-7.05H63.83c-1.2,0-2.79.18-3.38.21V84.23a30.3,30.3,0,0,0,3.38.22H73.91a11.22,11.22,0,0,0,3-.36Z"/><path class="cls-1" d="M88.91,91.7H97V87.62c-2.76.25-5.77.33-7.68.36l-.91-3.3c.45,0,1,0,1.57,0a58.26,58.26,0,0,0,8.21-.51,30.71,30.71,0,0,0,7.23-1.7l2.36,3.14c-2.34.58-4.64,1.14-7,1.5V91.7H108c.59,0,2-.12,2.6-.18v3.7c-.77-.07-1.73-.1-2.51-.1h-7.41a14.44,14.44,0,0,1-7.35,11.76l-3.65-2.46c4.37-2,6.64-5.07,7.19-9.3H88.94c-.87,0-1.94,0-2.67.1v-3.7A26.1,26.1,0,0,0,88.91,91.7Z"/><path class="cls-1" d="M128.66,98.87a24.8,24.8,0,0,0,4.22-5.16c-.69.15-3.53.72-6.62,1.38,1.11,3.93,2.31,8.34,2.76,9.84.18.51.53,1.77.78,2.34l-3.9.93a21.21,21.21,0,0,0-.51-2.49c-.45-1.54-1.62-6-2.64-9.9-2.43.51-4.5.93-5.37,1.14l-.9-3.45a54.14,54.14,0,0,0,5.4-.84c-.3-1.11-.54-2-.75-2.66a10.51,10.51,0,0,0-.81-2l3.84-.92c.12.69.3,1.44.48,2.18l.78,2.76c3.63-.69,7.65-1.44,8.75-1.7a6.67,6.67,0,0,0,1.47-.45l2.28,1.62a44.11,44.11,0,0,1-6.08,9Z"/><path class="cls-1" d="M155.68,98.82a27.17,27.17,0,0,0,10.44-11.17l2.25,4c-4.26,7.53-12.77,13.2-21.26,14.64l-2.4-3.78A29.54,29.54,0,0,0,155.68,98.82Zm0-9.3-2.9,3a61.69,61.69,0,0,0-7.17-6.21l2.67-2.87A58.66,58.66,0,0,1,155.68,89.52Z"/></g></g></svg>