<svg xmlns="http://www.w3.org/2000/svg" viewBox="0 0 131.05 70.08"><defs><style>.cls-1{fill:#3a3a3a;}</style></defs><g id="Layer_2" data-name="Layer 2"><g id="Layer_1-2" data-name="Layer 1"><path class="cls-1" d="M105.49,23.58H103c-9.25,0-18.5,0-27.75,0-1.65,0-2.26-.38-2.23-2.14.1-6.47.09-12.94,0-19.41C73,.42,73.58,0,75.15,0Q102,.08,128.9,0c1.54,0,2.19.36,2.14,2-.2,7,.52,14-1,20.89-4.6,20.81-16.75,35.26-36.59,43.15a55.2,55.2,0,0,1-18.33,3.68c-1.66.07-2.09-.55-2.07-2.12q.1-9.51,0-19c0-1.69.43-2.33,2.23-2.48,13.59-1.13,23.31-8,29.26-20.2C104.83,25.31,105.06,24.64,105.49,23.58Z"/><path class="cls-1" d="M23.54,11.54c6.05-4.22,12-7.42,18.57-9C46.74,1.49,51.52,1.06,56.23.35c1.45-.22,1.9.44,1.89,1.87Q58,12,58.12,21.83c0,1.52-.56,1.94-2,2.07C40.35,25.34,29.91,33.63,25,48.62A38.25,38.25,0,0,0,23.6,58c-.23,3.42-.1,6.86,0,10.29,0,1.3-.35,1.83-1.75,1.82-6.66-.06-13.32-.09-20,0C-.14,70.11,0,69,0,67.7q0-27,0-54C0,10,.08,6.23,0,2.48,0,1,.36.29,2.05.31c6.53.09,13.07.07,19.6,0,1.42,0,2,.42,1.92,1.88C23.49,5.15,23.54,8.11,23.54,11.54Z"/></g></g></svg>